<mxfile host="app.diagrams.net" agent="Mozilla/5.0 (Windows NT 10.0; Win64; x64) AppleWebKit/537.36 (KHTML, like Gecko) Chrome/130.0.0.0 Safari/537.36" version="24.8.3">
  <diagram name="Page-1" id="tWU6bCxva7i9aXlH0Mj4">
    <mxGraphModel dx="1295" dy="1496" grid="1" gridSize="10" guides="1" tooltips="1" connect="1" arrows="1" fold="1" page="1" pageScale="1" pageWidth="827" pageHeight="1169" math="0" shadow="0">
      <root>
        <mxCell id="0" />
        <mxCell id="1" parent="0" />
        <mxCell id="g7bXPcTH8PHP9n6MLyjr-3" value="" style="edgeStyle=orthogonalEdgeStyle;rounded=0;orthogonalLoop=1;jettySize=auto;html=1;" edge="1" parent="1" source="g7bXPcTH8PHP9n6MLyjr-1" target="g7bXPcTH8PHP9n6MLyjr-2">
          <mxGeometry relative="1" as="geometry" />
        </mxCell>
        <mxCell id="g7bXPcTH8PHP9n6MLyjr-1" value="Start" style="ellipse;whiteSpace=wrap;html=1;" vertex="1" parent="1">
          <mxGeometry x="340" y="40" width="120" height="80" as="geometry" />
        </mxCell>
        <mxCell id="g7bXPcTH8PHP9n6MLyjr-5" value="" style="edgeStyle=orthogonalEdgeStyle;rounded=0;orthogonalLoop=1;jettySize=auto;html=1;" edge="1" parent="1" source="g7bXPcTH8PHP9n6MLyjr-2" target="g7bXPcTH8PHP9n6MLyjr-4">
          <mxGeometry relative="1" as="geometry" />
        </mxCell>
        <mxCell id="g7bXPcTH8PHP9n6MLyjr-2" value="int n;" style="whiteSpace=wrap;html=1;" vertex="1" parent="1">
          <mxGeometry x="340" y="150" width="120" height="60" as="geometry" />
        </mxCell>
        <mxCell id="g7bXPcTH8PHP9n6MLyjr-7" value="" style="edgeStyle=orthogonalEdgeStyle;rounded=0;orthogonalLoop=1;jettySize=auto;html=1;" edge="1" parent="1" source="g7bXPcTH8PHP9n6MLyjr-4" target="g7bXPcTH8PHP9n6MLyjr-6">
          <mxGeometry relative="1" as="geometry" />
        </mxCell>
        <mxCell id="g7bXPcTH8PHP9n6MLyjr-4" value="cin &amp;gt;&amp;gt; n;" style="shape=parallelogram;perimeter=parallelogramPerimeter;whiteSpace=wrap;html=1;fixedSize=1;" vertex="1" parent="1">
          <mxGeometry x="340" y="230" width="120" height="60" as="geometry" />
        </mxCell>
        <mxCell id="g7bXPcTH8PHP9n6MLyjr-9" value="" style="edgeStyle=orthogonalEdgeStyle;rounded=0;orthogonalLoop=1;jettySize=auto;html=1;" edge="1" parent="1" source="g7bXPcTH8PHP9n6MLyjr-6" target="g7bXPcTH8PHP9n6MLyjr-8">
          <mxGeometry relative="1" as="geometry" />
        </mxCell>
        <mxCell id="g7bXPcTH8PHP9n6MLyjr-10" value="true" style="edgeLabel;html=1;align=center;verticalAlign=middle;resizable=0;points=[];" vertex="1" connectable="0" parent="g7bXPcTH8PHP9n6MLyjr-9">
          <mxGeometry x="-0.125" y="2" relative="1" as="geometry">
            <mxPoint as="offset" />
          </mxGeometry>
        </mxCell>
        <mxCell id="g7bXPcTH8PHP9n6MLyjr-12" value="" style="edgeStyle=orthogonalEdgeStyle;rounded=0;orthogonalLoop=1;jettySize=auto;html=1;" edge="1" parent="1" source="g7bXPcTH8PHP9n6MLyjr-6" target="g7bXPcTH8PHP9n6MLyjr-11">
          <mxGeometry relative="1" as="geometry" />
        </mxCell>
        <mxCell id="g7bXPcTH8PHP9n6MLyjr-6" value="n &amp;lt; 1 || n &amp;gt; 1000" style="rhombus;whiteSpace=wrap;html=1;" vertex="1" parent="1">
          <mxGeometry x="340" y="320" width="120" height="80" as="geometry" />
        </mxCell>
        <mxCell id="g7bXPcTH8PHP9n6MLyjr-8" value="return 1;" style="whiteSpace=wrap;html=1;" vertex="1" parent="1">
          <mxGeometry x="140" y="330" width="120" height="60" as="geometry" />
        </mxCell>
        <mxCell id="g7bXPcTH8PHP9n6MLyjr-14" value="" style="edgeStyle=orthogonalEdgeStyle;rounded=0;orthogonalLoop=1;jettySize=auto;html=1;" edge="1" parent="1" source="g7bXPcTH8PHP9n6MLyjr-11" target="g7bXPcTH8PHP9n6MLyjr-13">
          <mxGeometry relative="1" as="geometry" />
        </mxCell>
        <mxCell id="g7bXPcTH8PHP9n6MLyjr-11" value="int votes[1000];" style="whiteSpace=wrap;html=1;" vertex="1" parent="1">
          <mxGeometry x="340" y="440" width="120" height="60" as="geometry" />
        </mxCell>
        <mxCell id="g7bXPcTH8PHP9n6MLyjr-16" value="" style="edgeStyle=orthogonalEdgeStyle;rounded=0;orthogonalLoop=1;jettySize=auto;html=1;" edge="1" parent="1" source="g7bXPcTH8PHP9n6MLyjr-13" target="g7bXPcTH8PHP9n6MLyjr-15">
          <mxGeometry relative="1" as="geometry" />
        </mxCell>
        <mxCell id="g7bXPcTH8PHP9n6MLyjr-13" value="int i = 0;" style="whiteSpace=wrap;html=1;" vertex="1" parent="1">
          <mxGeometry x="340" y="525" width="120" height="60" as="geometry" />
        </mxCell>
        <mxCell id="g7bXPcTH8PHP9n6MLyjr-18" value="" style="edgeStyle=orthogonalEdgeStyle;rounded=0;orthogonalLoop=1;jettySize=auto;html=1;" edge="1" parent="1" source="g7bXPcTH8PHP9n6MLyjr-15" target="g7bXPcTH8PHP9n6MLyjr-17">
          <mxGeometry relative="1" as="geometry" />
        </mxCell>
        <mxCell id="g7bXPcTH8PHP9n6MLyjr-24" value="true" style="edgeLabel;html=1;align=center;verticalAlign=middle;resizable=0;points=[];" vertex="1" connectable="0" parent="g7bXPcTH8PHP9n6MLyjr-18">
          <mxGeometry y="-1" relative="1" as="geometry">
            <mxPoint as="offset" />
          </mxGeometry>
        </mxCell>
        <mxCell id="g7bXPcTH8PHP9n6MLyjr-15" value="i &amp;lt; n;" style="rhombus;whiteSpace=wrap;html=1;" vertex="1" parent="1">
          <mxGeometry x="360" y="620" width="80" height="80" as="geometry" />
        </mxCell>
        <mxCell id="g7bXPcTH8PHP9n6MLyjr-20" value="" style="edgeStyle=orthogonalEdgeStyle;rounded=0;orthogonalLoop=1;jettySize=auto;html=1;" edge="1" parent="1" source="g7bXPcTH8PHP9n6MLyjr-17" target="g7bXPcTH8PHP9n6MLyjr-19">
          <mxGeometry relative="1" as="geometry" />
        </mxCell>
        <mxCell id="g7bXPcTH8PHP9n6MLyjr-17" value="cin &amp;gt;&amp;gt; votes[i]" style="shape=parallelogram;perimeter=parallelogramPerimeter;whiteSpace=wrap;html=1;fixedSize=1;" vertex="1" parent="1">
          <mxGeometry x="340" y="740" width="120" height="60" as="geometry" />
        </mxCell>
        <mxCell id="g7bXPcTH8PHP9n6MLyjr-22" value="" style="edgeStyle=orthogonalEdgeStyle;rounded=0;orthogonalLoop=1;jettySize=auto;html=1;" edge="1" parent="1" source="g7bXPcTH8PHP9n6MLyjr-19" target="g7bXPcTH8PHP9n6MLyjr-21">
          <mxGeometry relative="1" as="geometry" />
        </mxCell>
        <mxCell id="g7bXPcTH8PHP9n6MLyjr-23" value="true" style="edgeLabel;html=1;align=center;verticalAlign=middle;resizable=0;points=[];" vertex="1" connectable="0" parent="g7bXPcTH8PHP9n6MLyjr-22">
          <mxGeometry x="-0.3818" y="5" relative="1" as="geometry">
            <mxPoint as="offset" />
          </mxGeometry>
        </mxCell>
        <mxCell id="g7bXPcTH8PHP9n6MLyjr-26" value="" style="edgeStyle=orthogonalEdgeStyle;rounded=0;orthogonalLoop=1;jettySize=auto;html=1;" edge="1" parent="1" source="g7bXPcTH8PHP9n6MLyjr-19" target="g7bXPcTH8PHP9n6MLyjr-25">
          <mxGeometry relative="1" as="geometry" />
        </mxCell>
        <mxCell id="g7bXPcTH8PHP9n6MLyjr-19" value="votes[i] &amp;lt; 1 || votes[i] &amp;gt; 1e9" style="rhombus;whiteSpace=wrap;html=1;" vertex="1" parent="1">
          <mxGeometry x="305" y="830" width="190" height="80" as="geometry" />
        </mxCell>
        <mxCell id="g7bXPcTH8PHP9n6MLyjr-21" value="return 1;" style="whiteSpace=wrap;html=1;" vertex="1" parent="1">
          <mxGeometry x="130" y="840" width="120" height="60" as="geometry" />
        </mxCell>
        <mxCell id="g7bXPcTH8PHP9n6MLyjr-27" style="edgeStyle=orthogonalEdgeStyle;rounded=0;orthogonalLoop=1;jettySize=auto;html=1;entryX=1;entryY=0.5;entryDx=0;entryDy=0;" edge="1" parent="1" source="g7bXPcTH8PHP9n6MLyjr-25" target="g7bXPcTH8PHP9n6MLyjr-15">
          <mxGeometry relative="1" as="geometry">
            <Array as="points">
              <mxPoint x="560" y="980" />
              <mxPoint x="560" y="660" />
            </Array>
          </mxGeometry>
        </mxCell>
        <mxCell id="g7bXPcTH8PHP9n6MLyjr-29" value="" style="edgeStyle=orthogonalEdgeStyle;rounded=0;orthogonalLoop=1;jettySize=auto;html=1;" edge="1" parent="1" source="g7bXPcTH8PHP9n6MLyjr-25" target="g7bXPcTH8PHP9n6MLyjr-28">
          <mxGeometry relative="1" as="geometry" />
        </mxCell>
        <mxCell id="g7bXPcTH8PHP9n6MLyjr-25" value="i++;" style="whiteSpace=wrap;html=1;" vertex="1" parent="1">
          <mxGeometry x="340" y="950" width="120" height="60" as="geometry" />
        </mxCell>
        <mxCell id="g7bXPcTH8PHP9n6MLyjr-28" value="1" style="ellipse;whiteSpace=wrap;html=1;" vertex="1" parent="1">
          <mxGeometry x="360" y="1080" width="80" height="80" as="geometry" />
        </mxCell>
        <mxCell id="g7bXPcTH8PHP9n6MLyjr-32" value="" style="edgeStyle=orthogonalEdgeStyle;rounded=0;orthogonalLoop=1;jettySize=auto;html=1;" edge="1" parent="1" source="g7bXPcTH8PHP9n6MLyjr-30" target="g7bXPcTH8PHP9n6MLyjr-31">
          <mxGeometry relative="1" as="geometry" />
        </mxCell>
        <mxCell id="g7bXPcTH8PHP9n6MLyjr-30" value="1" style="ellipse;whiteSpace=wrap;html=1;aspect=fixed;" vertex="1" parent="1">
          <mxGeometry x="780" y="40" width="80" height="80" as="geometry" />
        </mxCell>
        <mxCell id="g7bXPcTH8PHP9n6MLyjr-34" value="" style="edgeStyle=orthogonalEdgeStyle;rounded=0;orthogonalLoop=1;jettySize=auto;html=1;" edge="1" parent="1" source="g7bXPcTH8PHP9n6MLyjr-31" target="g7bXPcTH8PHP9n6MLyjr-33">
          <mxGeometry relative="1" as="geometry" />
        </mxCell>
        <mxCell id="g7bXPcTH8PHP9n6MLyjr-31" value="int gcd_val = votes[0]" style="whiteSpace=wrap;html=1;" vertex="1" parent="1">
          <mxGeometry x="760" y="150" width="120" height="60" as="geometry" />
        </mxCell>
        <mxCell id="g7bXPcTH8PHP9n6MLyjr-36" value="" style="edgeStyle=orthogonalEdgeStyle;rounded=0;orthogonalLoop=1;jettySize=auto;html=1;" edge="1" parent="1" source="g7bXPcTH8PHP9n6MLyjr-33" target="g7bXPcTH8PHP9n6MLyjr-35">
          <mxGeometry relative="1" as="geometry" />
        </mxCell>
        <mxCell id="g7bXPcTH8PHP9n6MLyjr-33" value="int i = 0;" style="whiteSpace=wrap;html=1;" vertex="1" parent="1">
          <mxGeometry x="760" y="240" width="120" height="60" as="geometry" />
        </mxCell>
        <mxCell id="g7bXPcTH8PHP9n6MLyjr-38" value="" style="edgeStyle=orthogonalEdgeStyle;rounded=0;orthogonalLoop=1;jettySize=auto;html=1;" edge="1" parent="1" source="g7bXPcTH8PHP9n6MLyjr-35" target="g7bXPcTH8PHP9n6MLyjr-37">
          <mxGeometry relative="1" as="geometry" />
        </mxCell>
        <mxCell id="g7bXPcTH8PHP9n6MLyjr-39" value="true" style="edgeLabel;html=1;align=center;verticalAlign=middle;resizable=0;points=[];" vertex="1" connectable="0" parent="g7bXPcTH8PHP9n6MLyjr-38">
          <mxGeometry x="-0.1778" y="1" relative="1" as="geometry">
            <mxPoint as="offset" />
          </mxGeometry>
        </mxCell>
        <mxCell id="g7bXPcTH8PHP9n6MLyjr-35" value="i &amp;lt; n" style="rhombus;whiteSpace=wrap;html=1;" vertex="1" parent="1">
          <mxGeometry x="780" y="330" width="80" height="80" as="geometry" />
        </mxCell>
        <mxCell id="g7bXPcTH8PHP9n6MLyjr-41" value="" style="edgeStyle=orthogonalEdgeStyle;rounded=0;orthogonalLoop=1;jettySize=auto;html=1;" edge="1" parent="1" source="g7bXPcTH8PHP9n6MLyjr-37" target="g7bXPcTH8PHP9n6MLyjr-40">
          <mxGeometry relative="1" as="geometry" />
        </mxCell>
        <mxCell id="g7bXPcTH8PHP9n6MLyjr-37" value="int a = gcd_val, b = votes[i];&lt;div&gt;&lt;br&gt;&lt;/div&gt;" style="whiteSpace=wrap;html=1;" vertex="1" parent="1">
          <mxGeometry x="730" y="480" width="180" height="60" as="geometry" />
        </mxCell>
        <mxCell id="g7bXPcTH8PHP9n6MLyjr-43" value="" style="edgeStyle=orthogonalEdgeStyle;rounded=0;orthogonalLoop=1;jettySize=auto;html=1;" edge="1" parent="1" source="g7bXPcTH8PHP9n6MLyjr-40" target="g7bXPcTH8PHP9n6MLyjr-42">
          <mxGeometry relative="1" as="geometry" />
        </mxCell>
        <mxCell id="g7bXPcTH8PHP9n6MLyjr-50" value="true" style="edgeLabel;html=1;align=center;verticalAlign=middle;resizable=0;points=[];" vertex="1" connectable="0" parent="g7bXPcTH8PHP9n6MLyjr-43">
          <mxGeometry x="-0.45" y="5" relative="1" as="geometry">
            <mxPoint as="offset" />
          </mxGeometry>
        </mxCell>
        <mxCell id="g7bXPcTH8PHP9n6MLyjr-40" value="while( b != 0)" style="rhombus;whiteSpace=wrap;html=1;" vertex="1" parent="1">
          <mxGeometry x="780" y="610" width="80" height="80" as="geometry" />
        </mxCell>
        <mxCell id="g7bXPcTH8PHP9n6MLyjr-45" value="" style="edgeStyle=orthogonalEdgeStyle;rounded=0;orthogonalLoop=1;jettySize=auto;html=1;" edge="1" parent="1" source="g7bXPcTH8PHP9n6MLyjr-42" target="g7bXPcTH8PHP9n6MLyjr-44">
          <mxGeometry relative="1" as="geometry" />
        </mxCell>
        <mxCell id="g7bXPcTH8PHP9n6MLyjr-42" value="a %= b;&lt;div&gt;swap(a, b);&lt;/div&gt;" style="whiteSpace=wrap;html=1;" vertex="1" parent="1">
          <mxGeometry x="760" y="730" width="120" height="60" as="geometry" />
        </mxCell>
        <mxCell id="g7bXPcTH8PHP9n6MLyjr-47" value="" style="edgeStyle=orthogonalEdgeStyle;rounded=0;orthogonalLoop=1;jettySize=auto;html=1;" edge="1" parent="1" source="g7bXPcTH8PHP9n6MLyjr-44" target="g7bXPcTH8PHP9n6MLyjr-46">
          <mxGeometry relative="1" as="geometry" />
        </mxCell>
        <mxCell id="g7bXPcTH8PHP9n6MLyjr-48" style="edgeStyle=orthogonalEdgeStyle;rounded=0;orthogonalLoop=1;jettySize=auto;html=1;entryX=1;entryY=0.5;entryDx=0;entryDy=0;" edge="1" parent="1" source="g7bXPcTH8PHP9n6MLyjr-44" target="g7bXPcTH8PHP9n6MLyjr-40">
          <mxGeometry relative="1" as="geometry">
            <Array as="points">
              <mxPoint x="960" y="850" />
              <mxPoint x="960" y="650" />
            </Array>
          </mxGeometry>
        </mxCell>
        <mxCell id="g7bXPcTH8PHP9n6MLyjr-44" value="gcd_val = a;" style="whiteSpace=wrap;html=1;" vertex="1" parent="1">
          <mxGeometry x="760" y="820" width="120" height="60" as="geometry" />
        </mxCell>
        <mxCell id="g7bXPcTH8PHP9n6MLyjr-52" style="edgeStyle=orthogonalEdgeStyle;rounded=0;orthogonalLoop=1;jettySize=auto;html=1;entryX=0;entryY=0.5;entryDx=0;entryDy=0;" edge="1" parent="1" source="g7bXPcTH8PHP9n6MLyjr-46" target="g7bXPcTH8PHP9n6MLyjr-35">
          <mxGeometry relative="1" as="geometry">
            <Array as="points">
              <mxPoint x="670" y="940" />
              <mxPoint x="670" y="370" />
            </Array>
          </mxGeometry>
        </mxCell>
        <mxCell id="g7bXPcTH8PHP9n6MLyjr-54" value="" style="edgeStyle=orthogonalEdgeStyle;rounded=0;orthogonalLoop=1;jettySize=auto;html=1;" edge="1" parent="1" source="g7bXPcTH8PHP9n6MLyjr-46" target="g7bXPcTH8PHP9n6MLyjr-53">
          <mxGeometry relative="1" as="geometry" />
        </mxCell>
        <mxCell id="g7bXPcTH8PHP9n6MLyjr-46" value="i++" style="whiteSpace=wrap;html=1;" vertex="1" parent="1">
          <mxGeometry x="760" y="910" width="120" height="60" as="geometry" />
        </mxCell>
        <mxCell id="g7bXPcTH8PHP9n6MLyjr-56" value="" style="edgeStyle=orthogonalEdgeStyle;rounded=0;orthogonalLoop=1;jettySize=auto;html=1;" edge="1" parent="1" source="g7bXPcTH8PHP9n6MLyjr-53" target="g7bXPcTH8PHP9n6MLyjr-55">
          <mxGeometry relative="1" as="geometry" />
        </mxCell>
        <mxCell id="g7bXPcTH8PHP9n6MLyjr-53" value="long long total_seats = 0;" style="whiteSpace=wrap;html=1;" vertex="1" parent="1">
          <mxGeometry x="750" y="1000" width="140" height="60" as="geometry" />
        </mxCell>
        <mxCell id="g7bXPcTH8PHP9n6MLyjr-55" value="2" style="ellipse;whiteSpace=wrap;html=1;" vertex="1" parent="1">
          <mxGeometry x="780" y="1080" width="80" height="80" as="geometry" />
        </mxCell>
        <mxCell id="g7bXPcTH8PHP9n6MLyjr-59" value="" style="edgeStyle=orthogonalEdgeStyle;rounded=0;orthogonalLoop=1;jettySize=auto;html=1;" edge="1" parent="1" source="g7bXPcTH8PHP9n6MLyjr-57" target="g7bXPcTH8PHP9n6MLyjr-58">
          <mxGeometry relative="1" as="geometry" />
        </mxCell>
        <mxCell id="g7bXPcTH8PHP9n6MLyjr-57" value="2" style="ellipse;whiteSpace=wrap;html=1;aspect=fixed;" vertex="1" parent="1">
          <mxGeometry x="1180" y="40" width="80" height="80" as="geometry" />
        </mxCell>
        <mxCell id="g7bXPcTH8PHP9n6MLyjr-61" value="" style="edgeStyle=orthogonalEdgeStyle;rounded=0;orthogonalLoop=1;jettySize=auto;html=1;" edge="1" parent="1" source="g7bXPcTH8PHP9n6MLyjr-58" target="g7bXPcTH8PHP9n6MLyjr-60">
          <mxGeometry relative="1" as="geometry" />
        </mxCell>
        <mxCell id="g7bXPcTH8PHP9n6MLyjr-58" value="int i = 0;" style="whiteSpace=wrap;html=1;" vertex="1" parent="1">
          <mxGeometry x="1160" y="150" width="120" height="60" as="geometry" />
        </mxCell>
        <mxCell id="g7bXPcTH8PHP9n6MLyjr-63" value="" style="edgeStyle=orthogonalEdgeStyle;rounded=0;orthogonalLoop=1;jettySize=auto;html=1;" edge="1" parent="1" source="g7bXPcTH8PHP9n6MLyjr-60" target="g7bXPcTH8PHP9n6MLyjr-62">
          <mxGeometry relative="1" as="geometry" />
        </mxCell>
        <mxCell id="g7bXPcTH8PHP9n6MLyjr-60" value="i &amp;lt; n" style="rhombus;whiteSpace=wrap;html=1;" vertex="1" parent="1">
          <mxGeometry x="1180" y="240" width="80" height="80" as="geometry" />
        </mxCell>
        <mxCell id="g7bXPcTH8PHP9n6MLyjr-65" value="" style="edgeStyle=orthogonalEdgeStyle;rounded=0;orthogonalLoop=1;jettySize=auto;html=1;" edge="1" parent="1" source="g7bXPcTH8PHP9n6MLyjr-62" target="g7bXPcTH8PHP9n6MLyjr-64">
          <mxGeometry relative="1" as="geometry" />
        </mxCell>
        <mxCell id="g7bXPcTH8PHP9n6MLyjr-62" value="total_seats += static_cast&amp;lt;long long&amp;gt;(votes[i]) / gcd_val" style="whiteSpace=wrap;html=1;" vertex="1" parent="1">
          <mxGeometry x="1055" y="370" width="330" height="60" as="geometry" />
        </mxCell>
        <mxCell id="g7bXPcTH8PHP9n6MLyjr-67" value="" style="edgeStyle=orthogonalEdgeStyle;rounded=0;orthogonalLoop=1;jettySize=auto;html=1;" edge="1" parent="1" source="g7bXPcTH8PHP9n6MLyjr-64" target="g7bXPcTH8PHP9n6MLyjr-66">
          <mxGeometry relative="1" as="geometry" />
        </mxCell>
        <mxCell id="g7bXPcTH8PHP9n6MLyjr-64" value="i++" style="whiteSpace=wrap;html=1;" vertex="1" parent="1">
          <mxGeometry x="1160" y="480" width="120" height="60" as="geometry" />
        </mxCell>
        <mxCell id="g7bXPcTH8PHP9n6MLyjr-69" value="" style="edgeStyle=orthogonalEdgeStyle;rounded=0;orthogonalLoop=1;jettySize=auto;html=1;" edge="1" parent="1" source="g7bXPcTH8PHP9n6MLyjr-66" target="g7bXPcTH8PHP9n6MLyjr-68">
          <mxGeometry relative="1" as="geometry" />
        </mxCell>
        <mxCell id="g7bXPcTH8PHP9n6MLyjr-66" value="total_seats" style="shape=parallelogram;perimeter=parallelogramPerimeter;whiteSpace=wrap;html=1;fixedSize=1;" vertex="1" parent="1">
          <mxGeometry x="1160" y="600" width="120" height="60" as="geometry" />
        </mxCell>
        <mxCell id="g7bXPcTH8PHP9n6MLyjr-68" value="End" style="ellipse;whiteSpace=wrap;html=1;" vertex="1" parent="1">
          <mxGeometry x="1160" y="720" width="120" height="80" as="geometry" />
        </mxCell>
      </root>
    </mxGraphModel>
  </diagram>
</mxfile>
